# xmcd
#
# Track frame offsets: 
#        150
#        9158
#        19298
#        31516
#        43531
#        66871
#        77109
#        94689
#        108452
#        133255
#        152350
#        174250
#        178510
#        189805
#        207325
#
# Disc length: 2948 seconds
#
# Revision: 0
# Processed by: cddbd v1.5.2PL0 Copyright (c) Steve Scherf et al.
# Submitted via: ExactAudioCopyFreeDBPlugin 1.0
#
DISCID=ae0b820f
DTITLE=Janis Joplin - Rarest Pearls
DYEAR=1970
DGENRE=Blues Rock
TTITLE0=Coo Coo
TTITLE1=The Last Time
TTITLE2=Call On Me
TTITLE3=Bye Bye Baby
TTITLE4=Easy Rider
TTITLE5=It's A Deal
TTITLE6=Easy Once You Know How
TTITLE7=Flower In The Sun
TTITLE8=Road Block
TTITLE9=Misery 'n
TTITLE10=Catch Me Daddy
TTITLE11=Harry
TTITLE12=Dear Landlord
TTITLE13=Me And Bobby McGee
TTITLE14=One Night Stand
EXTD=
EXTT0=
EXTT1=
EXTT2=
EXTT3=
EXTT4=
EXTT5=
EXTT6=
EXTT7=
EXTT8=
EXTT9=
EXTT10=
EXTT11=
EXTT12=
EXTT13=
EXTT14=
PLAYORDER=
